<svg width="229" height="49" viewBox="0 0 229 49" fill="none" xmlns="http://www.w3.org/2000/svg">
<path d="M6.75223 28.1407V40.4145H0.878174V9.00354H10.5032C12.6599 9.00354 14.506 9.22063 16.0416 9.66315C17.5773 10.1057 18.836 10.7235 19.8178 11.5168C20.7996 12.31 21.5213 13.2618 21.9828 14.3723C22.4444 15.4828 22.6709 16.7018 22.6709 18.0294C22.6709 19.0898 22.5115 20.0834 22.201 21.0269C21.8905 21.9704 21.4374 22.822 20.85 23.5902C20.2626 24.3583 19.5325 25.0347 18.6682 25.6108C17.8039 26.1869 16.8137 26.6545 15.706 27.0051C16.4528 27.4226 17.0906 28.0238 17.6276 28.8086L25.5324 40.4061H20.2458C19.7339 40.4061 19.3059 40.306 18.9451 40.1056C18.5843 39.9052 18.2906 39.6129 18.0388 39.2372L11.4011 29.176C11.1494 28.8003 10.8809 28.5331 10.5788 28.3745C10.2767 28.2158 9.84031 28.1323 9.26129 28.1323H6.75223V28.1407ZM6.75223 23.9492H10.4193C11.527 23.9492 12.492 23.8156 13.3144 23.5401C14.1368 23.2645 14.8165 22.8888 15.3451 22.3962C15.8738 21.9119 16.2766 21.3358 16.5367 20.6678C16.7969 19.9999 16.9311 19.2735 16.9311 18.4719C16.9311 16.8772 16.4025 15.6581 15.3451 14.7981C14.2878 13.9465 12.6766 13.5123 10.5116 13.5123H6.75223V23.9409V23.9492Z" fill="#4C956C"/>
<path d="M55.0958 15.6164H54.5419C54.4664 15.4995 54.5 15.3742 54.4832 15.249C54.3489 14.2471 53.9629 13.3453 53.3168 12.5688C52.9727 12.1513 52.5699 11.8006 52.1084 11.5168C51.6972 11.2579 51.4455 10.8989 51.3532 10.4313C51.3112 10.1975 51.328 9.96374 51.4119 9.72996C51.4958 9.47112 51.5378 9.20394 51.4706 8.93675C51.4287 8.75306 51.3364 8.59442 51.2357 8.44413C51.0594 8.18529 50.9168 7.91811 50.8497 7.60917C50.7322 6.98296 50.8413 6.39849 51.2273 5.88082C51.5462 5.45499 51.6133 5.01247 51.4287 4.51984C51.2692 4.07732 51.3028 3.64314 51.521 3.23402C51.8063 2.71635 52.251 2.42411 52.8468 2.36566C53.3084 2.32392 53.6524 2.10683 53.8706 1.70605C54.0888 1.31362 54.3741 0.987991 54.8272 0.871098C55.6412 0.64566 56.3713 0.879447 56.7908 1.63091C57.0426 2.08178 57.395 2.32392 57.9069 2.36566C58.9726 2.46586 59.644 3.5513 59.2747 4.54489C59.0985 5.02082 59.1573 5.45499 59.4677 5.85577C60.0132 6.55713 60.0635 7.60082 59.5349 8.36063C59.3922 8.56937 59.2663 8.78646 59.2244 9.03694C59.1824 9.24568 59.2076 9.45442 59.2747 9.64646C59.5517 10.3812 59.2244 11.1327 58.5699 11.5418C57.7643 12.0428 57.1517 12.7358 56.7321 13.5791C56.43 14.1803 56.2622 14.8148 56.2034 15.4744C56.2034 15.5245 56.2034 15.5746 56.1615 15.608H55.6076C55.5573 15.5579 55.5657 15.4911 55.5657 15.4327C55.5657 14.5309 55.5657 13.6292 55.5657 12.7274C55.5657 12.5938 55.6076 12.4937 55.7167 12.4018C56.0524 12.1179 56.3713 11.8173 56.6985 11.5251C57.1349 11.1327 57.5713 10.7486 57.9992 10.3562C58.0915 10.2727 58.0915 10.2142 58.016 10.1307C57.8314 9.922 57.8146 9.91365 57.6048 10.1057C57.0846 10.5816 56.5559 11.0492 56.0272 11.5168C55.9265 11.6086 55.8174 11.6921 55.7251 11.7839C55.6916 11.8173 55.658 11.8507 55.6076 11.8257C55.5573 11.809 55.5573 11.7589 55.5573 11.7171C55.5573 11.5418 55.5573 11.3581 55.5573 11.1828C55.5573 10.6484 55.5573 10.114 55.5573 9.57967C55.5573 9.43772 55.5993 9.33753 55.7 9.23733C56.43 8.57772 57.1685 7.93481 57.8901 7.27519C57.9069 7.25849 57.8901 7.27519 57.8985 7.26684C57.9573 7.20005 58.0831 7.175 58.0664 7.06645C58.0412 6.95791 57.9489 6.88276 57.865 6.80762C57.8146 6.75752 57.7727 6.78257 57.7223 6.82432C57.4286 7.0915 57.1349 7.35034 56.8328 7.61752C56.4552 7.95151 56.086 8.29384 55.7083 8.61947C55.6748 8.64452 55.6412 8.68626 55.5993 8.66957C55.5489 8.64452 55.5573 8.58607 55.5573 8.53597C55.5573 8.1185 55.5573 7.70102 55.5573 7.27519C55.5573 6.97461 55.5573 6.66568 55.5573 6.36509C55.5573 6.2482 55.5909 6.15635 55.6832 6.08956C56.2622 5.59694 56.8244 5.09596 57.4034 4.60334C57.437 4.57829 57.4706 4.54489 57.4957 4.51149C57.5125 4.4948 57.5293 4.48645 57.5293 4.46975C57.5461 4.32781 57.4202 4.26936 57.3447 4.18586C57.286 4.11907 57.2272 4.15247 57.1685 4.20256C56.9335 4.4113 56.6985 4.62004 56.4552 4.82043C56.2202 5.02082 55.9853 5.23791 55.7419 5.43829C55.7 5.47169 55.6664 5.52179 55.6076 5.49674C55.5405 5.47169 55.5573 5.39655 55.5573 5.34645C55.5573 5.09596 55.5573 4.84548 55.5573 4.59499C55.5573 3.85188 55.5573 3.10877 55.5573 2.36566C55.5573 2.17363 55.5573 2.17363 55.3643 2.17363C55.1965 2.17363 55.1125 2.25712 55.1125 2.42411C55.1125 3.37596 55.1125 4.31946 55.1125 5.2713C55.1125 5.34645 55.1461 5.45499 55.0538 5.48839C54.9699 5.52179 54.9195 5.4216 54.8692 5.3715C54.4077 4.97907 53.9545 4.57829 53.5014 4.18586C53.4259 4.11907 53.3671 4.11907 53.3 4.18586C53.2832 4.20256 53.2748 4.21091 53.258 4.22761C53.0818 4.4113 53.0902 4.41965 53.2748 4.58664C53.837 5.08761 54.3993 5.57189 54.9699 6.06451C55.0706 6.148 55.1125 6.2482 55.1125 6.38179C55.1125 7.08315 55.1125 7.79286 55.1125 8.49422C55.1125 8.51927 55.1125 8.54432 55.1125 8.56937C55.1125 8.61112 55.1125 8.65287 55.0706 8.66957C55.0286 8.68626 54.9951 8.65287 54.9699 8.62782C54.7685 8.46083 54.5839 8.27714 54.3825 8.11015C53.9126 7.69267 53.4426 7.26684 52.9643 6.84102C52.8804 6.77422 52.8217 6.76587 52.7545 6.84102C52.7461 6.84937 52.7377 6.85771 52.721 6.87441C52.5196 7.09985 52.5699 7.0915 52.7377 7.24179C53.2832 7.72607 53.8286 8.21034 54.3657 8.70296C54.5755 8.895 54.7853 9.07869 54.9951 9.26238C55.0706 9.32918 55.1125 9.39598 55.1125 9.49617C55.1125 10.2226 55.1125 10.9406 55.1125 11.667C55.1125 11.7255 55.1209 11.7923 55.0622 11.8173C54.9951 11.8424 54.9615 11.7839 54.9195 11.7422C54.3573 11.2329 53.7951 10.7236 53.2245 10.2226C53.1405 10.1474 53.065 10.0556 52.9727 9.98879C52.9056 9.93035 52.8468 9.93869 52.7797 9.99714C52.5615 10.1975 52.5531 10.2142 52.7713 10.4146C53.2161 10.8237 53.6692 11.2245 54.1223 11.6253C54.4244 11.8925 54.7181 12.1764 55.0286 12.4352C55.0958 12.4937 55.1209 12.5688 55.1209 12.6523C55.1209 13.5874 55.1209 14.5226 55.1209 15.4577C55.1209 15.5078 55.1209 15.5579 55.079 15.5913L55.0958 15.6164Z" fill="#4C956C"/>
<path d="M47.9127 6.88277C47.9714 6.79927 47.963 6.69908 47.9882 6.60724C48.0637 6.3317 48.198 6.08121 48.3658 5.84743C48.6679 5.44665 48.7267 5.00412 48.5504 4.53655C48.1728 3.50956 48.8609 2.47422 49.9518 2.39072C50.4301 2.35732 50.7742 2.11519 51.0008 1.68936C51.3196 1.09654 51.8231 0.795958 52.4944 0.804307C52.8721 0.804307 53.1993 0.954599 53.4846 1.19674C53.5434 1.24683 53.535 1.28023 53.5098 1.34703C53.342 1.68936 53.0819 1.83965 52.6958 1.87305C51.6637 1.98159 50.8749 2.86664 50.8413 3.90199C50.8413 3.91868 50.8413 3.94373 50.8413 3.96043C50.7994 3.98548 50.7658 3.95208 50.7406 3.93538C50.4973 3.80179 50.2539 3.67655 50.019 3.53461C49.9183 3.47616 49.8847 3.50121 49.8427 3.59305C49.8008 3.67655 49.7588 3.76839 49.7001 3.84354C49.6497 3.91868 49.6665 3.95208 49.742 3.99383C50.1197 4.19422 50.4889 4.40296 50.8581 4.60335C50.9336 4.64509 50.9756 4.70354 51.0008 4.78704C51.0763 5.03752 51.0511 5.27966 50.8917 5.4884C50.6148 5.85578 50.4217 6.25656 50.3462 6.73248C50.0693 6.55714 49.7924 6.39015 49.5322 6.21481C49.4315 6.14801 49.3644 6.13131 49.3057 6.2649C49.2553 6.37345 49.1127 6.48199 49.1378 6.58219C49.163 6.67403 49.3225 6.72413 49.4232 6.78258C49.6917 6.94957 49.9602 7.12491 50.2287 7.2919C50.2875 7.33364 50.3211 7.37539 50.3294 7.45054C50.3714 7.89306 50.5224 8.29384 50.7826 8.65287C51.0008 8.94511 51.0679 9.25404 50.9336 9.60472C50.8749 9.77171 50.8413 9.9387 50.8413 10.114C50.8413 10.2226 50.8078 10.2226 50.7322 10.1725C50.321 9.9053 49.9099 9.65482 49.4987 9.38763C49.398 9.32084 49.356 9.33753 49.3057 9.43773C49.2469 9.55462 49.0959 9.66317 49.1295 9.76336C49.1546 9.85521 49.3225 9.9053 49.4316 9.9721C49.9183 10.281 50.4134 10.59 50.9001 10.8989C50.9504 10.9323 51.0008 10.9657 51.0259 11.0325C51.2105 11.4249 51.5043 11.7172 51.8651 11.9509C52.8217 12.5772 53.4763 13.4288 53.8203 14.5226C53.9294 14.8816 53.9965 15.249 54.0217 15.6247H53.149C53.0735 15.583 53.0567 15.4995 53.0315 15.4327C52.8217 14.9317 52.6371 14.4141 52.3434 13.9548C51.8651 13.2034 51.2273 12.6189 50.4385 12.1931C50.019 11.9676 49.5994 11.7506 49.1882 11.5168C48.7015 11.2412 48.4497 10.8071 48.3994 10.256C48.3826 10.0639 48.433 9.88025 48.4917 9.70491C48.6427 9.23734 48.584 8.81986 48.2819 8.42743C48.0637 8.1352 47.9295 7.80957 47.9043 7.44219V7.38374C47.9295 7.3253 47.9295 7.26685 47.9043 7.2084V7.14996C47.9295 7.09151 47.9295 7.03306 47.9043 6.97462V6.89112L47.9127 6.88277Z" fill="#4C956C"/>
<path d="M56.6986 15.6164C56.8161 14.0634 57.5209 12.8444 58.8216 11.9677C59.1909 11.7172 59.5097 11.4249 59.6943 11.0075C59.7195 10.9574 59.7615 10.9323 59.8034 10.8989C60.3657 10.5399 60.9279 10.1809 61.4901 9.83018C61.574 9.77173 61.616 9.73833 61.5405 9.63814C61.4566 9.53794 61.4062 9.35425 61.3139 9.33755C61.2216 9.32086 61.0957 9.4461 60.9866 9.52125C60.651 9.72998 60.3153 9.93872 59.9797 10.1558C59.8957 10.2059 59.8538 10.231 59.8622 10.0974C59.8622 9.90532 59.8202 9.71328 59.7531 9.52959C59.6524 9.23736 59.6943 8.96183 59.879 8.71134C60.1643 8.32726 60.3405 7.90144 60.3825 7.42551C60.3825 7.35037 60.4328 7.31697 60.4915 7.28357C60.8356 7.06648 61.1796 6.84939 61.5237 6.63231C61.5908 6.59056 61.6244 6.55716 61.5573 6.48201C61.4901 6.39852 61.4314 6.30667 61.3894 6.21483C61.3475 6.13133 61.3055 6.13968 61.23 6.18143C60.9531 6.36512 60.6678 6.54046 60.3741 6.72415C60.3321 6.54881 60.2985 6.38182 60.2398 6.21483C60.1475 5.96434 60.0132 5.73056 59.8454 5.51347C59.7447 5.37987 59.6776 5.22958 59.6776 5.06259C59.6776 4.83716 59.7111 4.65346 59.9629 4.53657C60.3069 4.37793 60.6258 4.17754 60.9531 3.99385C61.037 3.94375 61.0789 3.91036 61.0118 3.81851C60.9363 3.70997 60.9111 3.51793 60.7936 3.50123C60.6929 3.48453 60.5671 3.60977 60.4496 3.66822C60.265 3.76841 60.072 3.87696 59.8706 3.9855C59.8706 3.47618 59.7195 3.042 59.4174 2.66628C59.0398 2.19035 58.5363 1.90647 57.9237 1.85637C57.5461 1.83132 57.3363 1.60588 57.1769 1.29695C57.1433 1.2218 57.2105 1.20511 57.244 1.18006C57.9909 0.512095 59.1993 0.729182 59.686 1.63928C59.8706 1.98996 60.1391 2.24045 60.5251 2.34064C60.6594 2.37404 60.802 2.38239 60.9363 2.40744C61.9181 2.58278 62.5055 3.55968 62.1782 4.48647C61.9936 4.9958 62.0608 5.44667 62.3796 5.8892C62.9419 6.649 62.9419 7.6259 62.3796 8.39406C62.0859 8.80319 62.0104 9.22901 62.1782 9.70494C62.4216 10.4063 62.1279 11.1327 61.465 11.4917C61.0706 11.7088 60.6762 11.9176 60.2818 12.1347C59.1489 12.7358 58.3433 13.6376 57.8818 14.8232C57.7811 15.0904 57.672 15.3492 57.5629 15.6081H56.6902L56.6986 15.6164Z" fill="#4C956C"/>
<path d="M47.9127 6.96625C47.9631 7.02469 47.9547 7.08314 47.9127 7.14159V6.96625Z" fill="#4C956C"/>
<path d="M47.9127 7.20007C47.9547 7.25852 47.9631 7.31697 47.9127 7.37541V7.20007Z" fill="#4C956C"/>
<path d="M38.2371 17.7789C39.6469 17.7789 40.9476 18.0043 42.1308 18.4552C43.314 18.9061 44.3378 19.5573 45.2021 20.4173C46.058 21.2773 46.7293 22.3377 47.2077 23.5901C47.686 24.8426 47.9293 26.2703 47.9293 27.8818C47.9293 28.2909 47.9126 28.6249 47.8706 28.8921C47.837 29.1593 47.7699 29.368 47.6776 29.5183C47.5853 29.6686 47.451 29.7772 47.2916 29.844C47.1321 29.9107 46.9307 29.9441 46.679 29.9441H32.833C32.9924 32.2319 33.6134 33.9102 34.6875 34.9873C35.7616 36.056 37.1882 36.5987 38.9672 36.5987C39.8399 36.5987 40.5952 36.4985 41.2245 36.2981C41.8539 36.0978 42.4077 35.8723 42.886 35.6218C43.356 35.3797 43.7755 35.1543 44.128 34.9455C44.4888 34.7451 44.8329 34.6449 45.1685 34.6449C45.3867 34.6449 45.5797 34.6867 45.7391 34.7785C45.8986 34.862 46.0412 34.9873 46.1503 35.1459L47.7195 37.0997C47.1238 37.7927 46.4524 38.3772 45.714 38.8447C44.9755 39.3123 44.1951 39.6881 43.3895 39.9719C42.5839 40.2558 41.7616 40.4562 40.9224 40.5731C40.0833 40.69 39.2777 40.7484 38.4889 40.7484C36.9281 40.7484 35.4847 40.4896 34.1421 39.9803C32.7994 39.4626 31.6414 38.7028 30.6512 37.7009C29.661 36.6906 28.8806 35.4465 28.3184 33.9686C27.7477 32.4824 27.4708 30.7624 27.4708 28.8086C27.4708 27.289 27.7142 25.8612 28.2177 24.5169C28.7128 23.181 29.4177 22.0121 30.3491 21.0185C31.2722 20.0249 32.405 19.24 33.7309 18.6639C35.0651 18.0878 36.5672 17.7956 38.2371 17.7956V17.7789ZM38.3462 21.6197C36.777 21.6197 35.5435 22.0622 34.654 22.9472C33.7645 23.8323 33.2022 25.0847 32.9505 26.7045H43.079C43.079 26.0115 42.9867 25.3519 42.7937 24.7424C42.6007 24.1245 42.3154 23.5901 41.921 23.1226C41.5266 22.655 41.0315 22.296 40.4357 22.0288C39.8399 21.7616 39.1434 21.628 38.3378 21.628L38.3462 21.6197Z" fill="#4C956C"/>
<path d="M58.0579 18.1296V41.1743C58.0579 42.1428 57.932 43.0529 57.6803 43.9129C57.4285 44.7646 57.0173 45.5161 56.4551 46.159C55.8929 46.8019 55.1628 47.3112 54.2482 47.6786C53.3419 48.046 52.2258 48.2297 50.9167 48.2297C50.4048 48.2297 49.9349 48.1963 49.4986 48.1295C49.0622 48.0627 48.6174 47.9625 48.1643 47.8122L48.3405 44.9232C48.3825 44.631 48.5 44.4473 48.693 44.3722C48.886 44.2887 49.2468 44.2553 49.7839 44.2553C50.3209 44.2553 50.7741 44.1968 51.1517 44.0883C51.5209 43.9797 51.823 43.8044 52.0496 43.5706C52.2761 43.3285 52.4356 43.0195 52.5279 42.6271C52.6202 42.2347 52.6706 41.7504 52.6706 41.1743V18.1296H58.0663H58.0579Z" fill="#4C956C"/>
<path d="M69.0005 18.1296V32.2904C69.0005 33.6514 69.3194 34.7034 69.9488 35.4549C70.5781 36.198 71.5348 36.5737 72.8019 36.5737C73.7333 36.5737 74.606 36.365 75.42 35.9558C76.234 35.5467 77.006 34.9789 77.7361 34.2525V18.1379H83.1318V40.4228H79.834C79.1375 40.4228 78.6759 40.0972 78.4577 39.4459L78.0885 37.6675C77.627 38.1351 77.1403 38.5525 76.6452 38.9366C76.1501 39.3207 75.6214 39.6463 75.0592 39.9135C74.497 40.1807 73.8928 40.3894 73.2466 40.5397C72.6005 40.69 71.904 40.7652 71.1655 40.7652C69.9404 40.7652 68.8663 40.5564 67.9264 40.1473C66.9866 39.7382 66.1978 39.1537 65.56 38.4023C64.9222 37.6508 64.4355 36.7574 64.1083 35.7221C63.781 34.6867 63.6132 33.5428 63.6132 32.2987V18.1379H69.0089L69.0005 18.1296Z" fill="#4C956C"/>
<path d="M95.4337 11.6336C95.4337 12.1012 95.3414 12.5354 95.1484 12.9362C94.9554 13.3453 94.7036 13.696 94.3932 14.0049C94.0827 14.3055 93.7135 14.556 93.2939 14.7313C92.8743 14.915 92.4212 15.0068 91.9428 15.0068C91.4645 15.0068 91.0366 14.915 90.6254 14.7313C90.2142 14.5476 89.8534 14.3055 89.5429 14.0049C89.2324 13.7043 88.989 13.3453 88.8128 12.9362C88.6282 12.527 88.5359 12.0928 88.5359 11.6336C88.5359 11.1744 88.6282 10.7068 88.8128 10.2893C88.9974 9.87187 89.2408 9.50449 89.5429 9.20391C89.845 8.90333 90.2058 8.66119 90.6254 8.4775C91.0366 8.29381 91.4813 8.20197 91.9428 8.20197C92.4044 8.20197 92.8743 8.29381 93.2939 8.4775C93.7135 8.66119 94.0827 8.90333 94.3932 9.20391C94.7036 9.50449 94.9554 9.87187 95.1484 10.2893C95.3414 10.7068 95.4337 11.1577 95.4337 11.6336ZM94.6281 18.1296V40.4145H89.2324V18.1296H94.6281Z" fill="#4C956C"/>
<path d="M116.463 22.8387C116.303 23.0391 116.144 23.1977 115.993 23.3146C115.842 23.4315 115.615 23.49 115.33 23.49C115.045 23.49 114.785 23.4065 114.524 23.2395C114.264 23.0725 113.945 22.8805 113.585 22.6717C113.224 22.463 112.787 22.2709 112.284 22.1039C111.78 21.937 111.159 21.8535 110.421 21.8535C109.473 21.8535 108.642 22.0204 107.929 22.3628C107.215 22.7051 106.62 23.1894 106.15 23.8323C105.68 24.4669 105.327 25.2434 105.092 26.1451C104.857 27.0469 104.74 28.0739 104.74 29.2177C104.74 30.3616 104.866 31.4638 105.118 32.3906C105.369 33.3174 105.738 34.0939 106.217 34.7284C106.695 35.3547 107.283 35.8389 107.962 36.1646C108.642 36.4902 109.414 36.6572 110.278 36.6572C111.143 36.6572 111.831 36.5486 112.359 36.3399C112.888 36.1312 113.341 35.8974 113.702 35.6469C114.063 35.3964 114.382 35.1626 114.65 34.9539C114.919 34.7451 115.221 34.6366 115.557 34.6366C115.993 34.6366 116.32 34.8036 116.538 35.1376L118.091 37.0914C117.495 37.7844 116.849 38.3688 116.144 38.8364C115.439 39.304 114.717 39.6797 113.971 39.9636C113.224 40.2475 112.443 40.4479 111.646 40.5648C110.849 40.6817 110.052 40.7401 109.263 40.7401C107.878 40.7401 106.578 40.4813 105.352 39.972C104.127 39.4543 103.062 38.7112 102.155 37.7259C101.249 36.7407 100.527 35.5383 99.9903 34.1106C99.4616 32.6828 99.1931 31.0546 99.1931 29.2344C99.1931 27.5979 99.4281 26.0783 99.9064 24.684C100.376 23.2896 101.073 22.0789 101.987 21.0519C102.902 20.0333 104.043 19.2317 105.394 18.6556C106.745 18.0795 108.306 17.7872 110.069 17.7872C111.831 17.7872 113.207 18.0544 114.466 18.5888C115.724 19.1232 116.857 19.8913 117.864 20.8933L116.446 22.8471L116.463 22.8387Z" fill="#4C956C"/>
<path d="M130.804 17.7789C132.214 17.7789 133.514 18.0043 134.698 18.4552C135.881 18.9061 136.905 19.5573 137.769 20.4173C138.625 21.2773 139.296 22.3377 139.774 23.5901C140.253 24.8426 140.496 26.2703 140.496 27.8818C140.496 28.2909 140.479 28.6249 140.437 28.8921C140.404 29.1593 140.337 29.368 140.244 29.5183C140.152 29.6686 140.018 29.7772 139.858 29.844C139.699 29.9107 139.498 29.9441 139.246 29.9441H125.4C125.559 32.2319 126.18 33.9102 127.254 34.9873C128.328 36.056 129.755 36.5987 131.534 36.5987C132.407 36.5987 133.162 36.4985 133.791 36.2981C134.421 36.0978 134.974 35.8723 135.453 35.6218C135.923 35.3797 136.342 35.1543 136.695 34.9455C137.056 34.7451 137.4 34.6449 137.735 34.6449C137.953 34.6449 138.146 34.6867 138.306 34.7785C138.465 34.862 138.608 34.9873 138.717 35.1459L140.286 37.0997C139.691 37.7927 139.019 38.3772 138.281 38.8447C137.542 39.3123 136.762 39.6881 135.956 39.9719C135.151 40.2558 134.328 40.4562 133.489 40.5731C132.65 40.69 131.844 40.7484 131.056 40.7484C129.495 40.7484 128.051 40.4896 126.709 39.9803C125.366 39.4626 124.208 38.7028 123.218 37.7009C122.228 36.6906 121.447 35.4465 120.885 33.9686C120.315 32.4824 120.038 30.7624 120.038 28.8086C120.038 27.289 120.281 25.8612 120.784 24.5169C121.28 23.181 121.984 22.0121 122.916 21.0185C123.839 20.0249 124.972 19.24 126.298 18.6639C127.632 18.0878 129.134 17.7956 130.804 17.7956V17.7789ZM130.913 21.6197C129.344 21.6197 128.11 22.0622 127.221 22.9472C126.331 23.8323 125.769 25.0847 125.517 26.7045H135.646C135.646 26.0115 135.554 25.3519 135.36 24.7424C135.167 24.1245 134.882 23.5901 134.488 23.1226C134.093 22.655 133.598 22.296 133.002 22.0288C132.407 21.7616 131.71 21.628 130.905 21.628L130.913 21.6197Z" fill="#4C956C"/>
<path d="M144.885 40.4145V18.1296H148.183C148.879 18.1296 149.341 18.4552 149.559 19.1065L149.928 20.8682C150.381 20.409 150.86 19.9832 151.355 19.6074C151.858 19.2317 152.387 18.9061 152.949 18.6305C153.511 18.355 154.107 18.1463 154.753 18.0043C155.391 17.8624 156.096 17.7872 156.851 17.7872C158.076 17.7872 159.159 17.996 160.107 18.4051C161.055 18.8142 161.844 19.3987 162.473 20.1418C163.103 20.8849 163.59 21.7783 163.917 22.8137C164.244 23.849 164.412 24.9929 164.412 26.237V40.4228H159.016V26.237C159.016 24.876 158.697 23.8239 158.068 23.0725C157.439 22.3294 156.482 21.9537 155.215 21.9537C154.283 21.9537 153.411 22.1624 152.597 22.5799C151.783 22.9973 151.011 23.5735 150.281 24.2999V40.4145H144.885Z" fill="#4C956C"/>
<path d="M187.262 40.4145H184.837C184.325 40.4145 183.931 40.3393 183.637 40.189C183.343 40.0387 183.125 39.7298 182.982 39.2622L182.504 37.6758C181.933 38.1851 181.38 38.6277 180.834 39.0118C180.289 39.3958 179.727 39.7215 179.139 39.9803C178.552 40.2391 177.939 40.4395 177.285 40.5648C176.63 40.6984 175.9 40.7568 175.103 40.7568C174.155 40.7568 173.282 40.6316 172.485 40.3727C171.687 40.1222 170.999 39.7382 170.42 39.2288C169.841 38.7195 169.397 38.085 169.078 37.3335C168.759 36.582 168.599 35.697 168.599 34.695C168.599 33.8517 168.818 33.0168 169.262 32.1985C169.707 31.3803 170.446 30.6372 171.478 29.9776C172.51 29.3179 173.886 28.7669 175.606 28.3327C177.327 27.8985 179.458 27.6814 182.001 27.6814V26.3706C182.001 24.8676 181.682 23.7571 181.052 23.0307C180.423 22.3043 179.5 21.9453 178.292 21.9453C177.419 21.9453 176.689 22.0455 176.11 22.2459C175.531 22.4463 175.019 22.6801 174.591 22.9305C174.163 23.181 173.769 23.4148 173.399 23.6152C173.038 23.8156 172.636 23.9158 172.199 23.9158C171.838 23.9158 171.52 23.8239 171.259 23.6319C170.999 23.4399 170.79 23.2144 170.63 22.9389L169.648 21.2189C172.224 18.8727 175.329 17.7037 178.971 17.7037C180.28 17.7037 181.447 17.9208 182.479 18.3467C183.511 18.7725 184.375 19.3653 185.089 20.1251C185.802 20.8849 186.347 21.795 186.717 22.847C187.086 23.9074 187.27 25.0597 187.27 26.3205V40.3978L187.262 40.4145ZM176.781 37.0663C177.335 37.0663 177.847 37.0162 178.308 36.916C178.77 36.8158 179.215 36.6655 179.626 36.4651C180.037 36.2648 180.44 36.0226 180.826 35.7304C181.212 35.4382 181.598 35.0958 181.992 34.695V30.9628C180.423 30.9628 179.106 31.063 178.048 31.255C176.991 31.4471 176.143 31.7059 175.506 32.0065C174.868 32.3154 174.406 32.6745 174.138 33.0752C173.869 33.4844 173.735 33.9269 173.735 34.4112C173.735 35.363 174.012 36.0393 174.574 36.4484C175.136 36.8576 175.866 37.058 176.764 37.058L176.781 37.0663Z" fill="#4C956C"/>
<path d="M199.925 40.7652C197.986 40.7652 196.501 40.2224 195.452 39.1287C194.403 38.0349 193.883 36.5236 193.883 34.6032V22.154H191.609C191.315 22.154 191.063 22.0622 190.854 21.8702C190.644 21.6781 190.535 21.4026 190.535 21.0269V18.8977L194.135 18.3133L195.268 12.2348C195.326 11.9426 195.461 11.7171 195.67 11.5585C195.88 11.3998 196.149 11.3163 196.468 11.3163H199.262V18.33H205.153V22.154H199.262V34.2358C199.262 34.9288 199.438 35.4716 199.782 35.864C200.135 36.2564 200.596 36.4485 201.184 36.4485C201.519 36.4485 201.796 36.4067 202.023 36.3316C202.249 36.2481 202.442 36.1646 202.61 36.0811C202.778 35.9976 202.929 35.9141 203.055 35.8306C203.189 35.7554 203.315 35.7137 203.449 35.7137C203.609 35.7137 203.743 35.7554 203.844 35.8306C203.944 35.9141 204.054 36.031 204.171 36.1896L205.791 38.7947C205.002 39.4459 204.104 39.9386 203.08 40.2725C202.065 40.6065 201.007 40.7735 199.917 40.7735L199.925 40.7652Z" fill="#4C956C"/>
<path d="M218.722 17.7789C220.132 17.7789 221.432 18.0043 222.616 18.4552C223.799 18.9061 224.823 19.5573 225.687 20.4173C226.543 21.2773 227.214 22.3377 227.692 23.5901C228.171 24.8426 228.414 26.2703 228.414 27.8818C228.414 28.2909 228.397 28.6249 228.355 28.8921C228.322 29.1593 228.255 29.368 228.162 29.5183C228.07 29.6686 227.936 29.7772 227.776 29.844C227.617 29.9107 227.415 29.9441 227.164 29.9441H213.318C213.477 32.2319 214.098 33.9102 215.172 34.9873C216.246 36.056 217.673 36.5987 219.452 36.5987C220.325 36.5987 221.08 36.4985 221.709 36.2981C222.339 36.0978 222.892 35.8723 223.371 35.6218C223.841 35.3797 224.26 35.1543 224.613 34.9455C224.974 34.7451 225.318 34.6449 225.653 34.6449C225.871 34.6449 226.064 34.6867 226.224 34.7785C226.383 34.862 226.526 34.9873 226.635 35.1459L228.204 37.0997C227.608 37.7927 226.937 38.3772 226.199 38.8447C225.46 39.3123 224.68 39.6881 223.874 39.9719C223.069 40.2558 222.246 40.4562 221.407 40.5731C220.568 40.69 219.762 40.7484 218.974 40.7484C217.413 40.7484 215.969 40.4896 214.627 39.9803C213.284 39.4626 212.126 38.7028 211.136 37.7009C210.146 36.6906 209.365 35.4465 208.803 33.9686C208.232 32.4824 207.956 30.7624 207.956 28.8086C207.956 27.289 208.199 25.8612 208.702 24.5169C209.197 23.181 209.902 22.0121 210.834 21.0185C211.757 20.0249 212.89 19.24 214.216 18.6639C215.55 18.0878 217.052 17.7956 218.722 17.7956V17.7789ZM218.831 21.6197C217.262 21.6197 216.028 22.0622 215.139 22.9472C214.249 23.8323 213.687 25.0847 213.435 26.7045H223.564C223.564 26.0115 223.471 25.3519 223.278 24.7424C223.085 24.1245 222.8 23.5901 222.406 23.1226C222.011 22.655 221.516 22.296 220.92 22.0288C220.325 21.7616 219.628 21.628 218.823 21.628L218.831 21.6197Z" fill="#4C956C"/>
</svg>
