<svg width="244" height="73" viewBox="0 0 244 73" fill="none" xmlns="http://www.w3.org/2000/svg">
<path d="M63.0958 25.6164H62.5419C62.4664 25.4995 62.5 25.3742 62.4832 25.249C62.3489 24.2471 61.9629 23.3453 61.3168 22.5688C60.9727 22.1513 60.5699 21.8006 60.1084 21.5168C59.6972 21.2579 59.4455 20.8989 59.3532 20.4313C59.3112 20.1975 59.328 19.9637 59.4119 19.73C59.4958 19.4711 59.5378 19.2039 59.4707 18.9368C59.4287 18.7531 59.3364 18.5944 59.2357 18.4441C59.0595 18.1853 58.9168 17.9181 58.8497 17.6092C58.7322 16.983 58.8413 16.3985 59.2273 15.8808C59.5462 15.455 59.6133 15.0125 59.4287 14.5198C59.2693 14.0773 59.3028 13.6431 59.521 13.234C59.8063 12.7163 60.2511 12.4241 60.8469 12.3657C61.3084 12.3239 61.6524 12.1068 61.8706 11.7061C62.0888 11.3136 62.3741 10.988 62.8273 10.8711C63.6412 10.6457 64.3713 10.8794 64.7909 11.6309C65.0426 12.0818 65.3951 12.3239 65.9069 12.3657C66.9727 12.4659 67.644 13.5513 67.2748 14.5449C67.0985 15.0208 67.1573 15.455 67.4678 15.8558C68.0132 16.5571 68.0636 17.6008 67.5349 18.3606C67.3922 18.5694 67.2664 18.7865 67.2244 19.0369C67.1824 19.2457 67.2076 19.4544 67.2748 19.6465C67.5517 20.3812 67.2244 21.1327 66.5699 21.5418C65.7643 22.0428 65.1517 22.7358 64.7321 23.5791C64.43 24.1803 64.2622 24.8148 64.2035 25.4744C64.2035 25.5245 64.2035 25.5746 64.1615 25.608H63.6077C63.5573 25.5579 63.5657 25.4911 63.5657 25.4327C63.5657 24.5309 63.5657 23.6292 63.5657 22.7274C63.5657 22.5938 63.6077 22.4937 63.7168 22.4018C64.0524 22.1179 64.3713 21.8173 64.6986 21.5251C65.1349 21.1327 65.5713 20.7486 65.9992 20.3562C66.0916 20.2727 66.0916 20.2142 66.016 20.1307C65.8314 19.922 65.8146 19.9136 65.6048 20.1057C65.0846 20.5816 64.5559 21.0492 64.0272 21.5168C63.9265 21.6086 63.8175 21.6921 63.7251 21.7839C63.6916 21.8173 63.658 21.8507 63.6077 21.8257C63.5573 21.809 63.5573 21.7589 63.5573 21.7171C63.5573 21.5418 63.5573 21.3581 63.5573 21.1828C63.5573 20.6484 63.5573 20.114 63.5573 19.5797C63.5573 19.4377 63.5993 19.3375 63.7 19.2373C64.43 18.5777 65.1685 17.9348 65.8902 17.2752C65.9069 17.2585 65.8902 17.2752 65.8985 17.2668C65.9573 17.2 66.0832 17.175 66.0664 17.0665C66.0412 16.9579 65.9489 16.8828 65.865 16.8076C65.8146 16.7575 65.7727 16.7826 65.7223 16.8243C65.4286 17.0915 65.1349 17.3503 64.8328 17.6175C64.4552 17.9515 64.086 18.2938 63.7084 18.6195C63.6748 18.6445 63.6412 18.6863 63.5993 18.6696C63.5489 18.6445 63.5573 18.5861 63.5573 18.536C63.5573 18.1185 63.5573 17.701 63.5573 17.2752C63.5573 16.9746 63.5573 16.6657 63.5573 16.3651C63.5573 16.2482 63.5909 16.1564 63.6832 16.0896C64.2622 15.5969 64.8244 15.096 65.4035 14.6033C65.437 14.5783 65.4706 14.5449 65.4958 14.5115C65.5125 14.4948 65.5293 14.4864 65.5293 14.4697C65.5461 14.3278 65.4202 14.2694 65.3447 14.1859C65.286 14.1191 65.2272 14.1525 65.1685 14.2026C64.9335 14.4113 64.6986 14.62 64.4552 14.8204C64.2202 15.0208 63.9853 15.2379 63.7419 15.4383C63.7 15.4717 63.6664 15.5218 63.6077 15.4967C63.5405 15.4717 63.5573 15.3965 63.5573 15.3464C63.5573 15.096 63.5573 14.8455 63.5573 14.595C63.5573 13.8519 63.5573 13.1088 63.5573 12.3657C63.5573 12.1736 63.5573 12.1736 63.3643 12.1736C63.1965 12.1736 63.1126 12.2571 63.1126 12.4241C63.1126 13.376 63.1126 14.3195 63.1126 15.2713C63.1126 15.3464 63.1461 15.455 63.0538 15.4884C62.9699 15.5218 62.9196 15.4216 62.8692 15.3715C62.4077 14.9791 61.9545 14.5783 61.5014 14.1859C61.4259 14.1191 61.3671 14.1191 61.3 14.1859C61.2832 14.2026 61.2748 14.2109 61.258 14.2276C61.0818 14.4113 61.0902 14.4196 61.2748 14.5866C61.8371 15.0876 62.3993 15.5719 62.9699 16.0645C63.0706 16.148 63.1126 16.2482 63.1126 16.3818C63.1126 17.0832 63.1126 17.7929 63.1126 18.4942C63.1126 18.5193 63.1126 18.5443 63.1126 18.5694C63.1126 18.6111 63.1126 18.6529 63.0706 18.6696C63.0287 18.6863 62.9951 18.6529 62.9699 18.6278C62.7685 18.4608 62.5839 18.2771 62.3825 18.1101C61.9126 17.6927 61.4427 17.2668 60.9643 16.841C60.8804 16.7742 60.8217 16.7659 60.7546 16.841C60.7462 16.8494 60.7378 16.8577 60.721 16.8744C60.5196 17.0999 60.5699 17.0915 60.7378 17.2418C61.2832 17.7261 61.8287 18.2103 62.3657 18.703C62.5755 18.895 62.7853 19.0787 62.9951 19.2624C63.0706 19.3292 63.1126 19.396 63.1126 19.4962C63.1126 20.2226 63.1126 20.9406 63.1126 21.667C63.1126 21.7255 63.121 21.7923 63.0622 21.8173C62.9951 21.8424 62.9615 21.7839 62.9196 21.7422C62.3573 21.2329 61.7951 20.7236 61.2245 20.2226C61.1406 20.1474 61.065 20.0556 60.9727 19.9888C60.9056 19.9303 60.8469 19.9387 60.7797 19.9971C60.5615 20.1975 60.5532 20.2142 60.7713 20.4146C61.2161 20.8237 61.6692 21.2245 62.1224 21.6253C62.4245 21.8925 62.7182 22.1764 63.0287 22.4352C63.0958 22.4937 63.121 22.5688 63.121 22.6523C63.121 23.5874 63.121 24.5226 63.121 25.4577C63.121 25.5078 63.121 25.5579 63.079 25.5913L63.0958 25.6164Z" fill="#4C956C"/>
<path d="M55.9126 16.8828C55.9714 16.7993 55.963 16.6991 55.9882 16.6072C56.0637 16.3317 56.198 16.0812 56.3658 15.8474C56.6679 15.4466 56.7266 15.0041 56.5504 14.5366C56.1728 13.5096 56.8609 12.4742 57.9518 12.3907C58.4301 12.3573 58.7742 12.1152 59.0007 11.6894C59.3196 11.0965 59.8231 10.796 60.4944 10.8043C60.872 10.8043 61.1993 10.9546 61.4846 11.1967C61.5433 11.2468 61.535 11.2802 61.5098 11.347C61.342 11.6894 61.0818 11.8397 60.6958 11.873C59.6637 11.9816 58.8749 12.8666 58.8413 13.902C58.8413 13.9187 58.8413 13.9437 58.8413 13.9604C58.7993 13.9855 58.7658 13.9521 58.7406 13.9354C58.4972 13.8018 58.2539 13.6765 58.0189 13.5346C57.9182 13.4762 57.8847 13.5012 57.8427 13.5931C57.8007 13.6765 57.7588 13.7684 57.7 13.8435C57.6497 13.9187 57.6665 13.9521 57.742 13.9938C58.1196 14.1942 58.4888 14.403 58.8581 14.6033C58.9336 14.6451 58.9755 14.7035 59.0007 14.787C59.0762 15.0375 59.0511 15.2797 58.8916 15.4884C58.6147 15.8558 58.4217 16.2566 58.3462 16.7325C58.0693 16.5571 57.7923 16.3901 57.5322 16.2148C57.4315 16.148 57.3644 16.1313 57.3056 16.2649C57.2553 16.3734 57.1126 16.482 57.1378 16.5822C57.163 16.674 57.3224 16.7241 57.4231 16.7826C57.6916 16.9496 57.9602 17.1249 58.2287 17.2919C58.2874 17.3336 58.321 17.3754 58.3294 17.4505C58.3714 17.8931 58.5224 18.2938 58.7825 18.6529C59.0007 18.9451 59.0679 19.254 58.9336 19.6047C58.8749 19.7717 58.8413 19.9387 58.8413 20.114C58.8413 20.2226 58.8077 20.2226 58.7322 20.1725C58.321 19.9053 57.9098 19.6548 57.4986 19.3876C57.3979 19.3208 57.356 19.3375 57.3056 19.4377C57.2469 19.5546 57.0959 19.6632 57.1294 19.7634C57.1546 19.8552 57.3224 19.9053 57.4315 19.9721C57.9182 20.281 58.4133 20.59 58.9 20.8989C58.9504 20.9323 59.0007 20.9657 59.0259 21.0325C59.2105 21.4249 59.5042 21.7172 59.865 21.9509C60.8217 22.5772 61.4762 23.4288 61.8203 24.5226C61.9294 24.8816 61.9965 25.249 62.0217 25.6247H61.149C61.0734 25.583 61.0566 25.4995 61.0315 25.4327C60.8217 24.9317 60.6371 24.4141 60.3434 23.9548C59.8651 23.2034 59.2273 22.6189 58.4385 22.1931C58.0189 21.9676 57.5993 21.7506 57.1882 21.5168C56.7015 21.2412 56.4497 20.8071 56.3994 20.256C56.3826 20.0639 56.4329 19.8803 56.4917 19.7049C56.6427 19.2373 56.584 18.8199 56.2819 18.4274C56.0637 18.1352 55.9294 17.8096 55.9043 17.4422V17.3837C55.9294 17.3253 55.9294 17.2668 55.9043 17.2084V17.15C55.9294 17.0915 55.9294 17.0331 55.9043 16.9746V16.8911L55.9126 16.8828Z" fill="#4C956C"/>
<path d="M64.6986 25.6164C64.816 24.0634 65.5209 22.8443 66.8216 21.9676C67.1908 21.7171 67.5097 21.4249 67.6943 21.0074C67.7195 20.9573 67.7615 20.9323 67.8034 20.8989C68.3657 20.5399 68.9279 20.1808 69.4901 19.8301C69.574 19.7717 69.616 19.7383 69.5405 19.6381C69.4566 19.5379 69.4062 19.3542 69.3139 19.3375C69.2216 19.3208 69.0957 19.4461 68.9866 19.5212C68.651 19.73 68.3153 19.9387 67.9796 20.1558C67.8957 20.2059 67.8538 20.2309 67.8622 20.0973C67.8622 19.9053 67.8202 19.7133 67.7531 19.5296C67.6524 19.2373 67.6943 18.9618 67.8789 18.7113C68.1643 18.3272 68.3405 17.9014 68.3824 17.4255C68.3824 17.3503 68.4328 17.3169 68.4915 17.2835C68.8356 17.0665 69.1796 16.8494 69.5237 16.6323C69.5908 16.5905 69.6244 16.5571 69.5572 16.482C69.4901 16.3985 69.4314 16.3066 69.3894 16.2148C69.3475 16.1313 69.3055 16.1397 69.23 16.1814C68.9531 16.3651 68.6677 16.5404 68.374 16.7241C68.3321 16.5488 68.2985 16.3818 68.2398 16.2148C68.1475 15.9643 68.0132 15.7305 67.8454 15.5134C67.7447 15.3798 67.6775 15.2296 67.6775 15.0626C67.6775 14.8371 67.7111 14.6534 67.9629 14.5365C68.3069 14.3779 68.6258 14.1775 68.9531 13.9938C69.037 13.9437 69.0789 13.9103 69.0118 13.8185C68.9363 13.7099 68.9111 13.5179 68.7936 13.5012C68.6929 13.4845 68.567 13.6097 68.4496 13.6682C68.265 13.7684 68.0719 13.8769 67.8706 13.9855C67.8706 13.4761 67.7195 13.042 67.4174 12.6662C67.0398 12.1903 66.5363 11.9064 65.9237 11.8563C65.5461 11.8313 65.3363 11.6059 65.1769 11.2969C65.1433 11.2218 65.2104 11.2051 65.244 11.18C65.9909 10.5121 67.1992 10.7292 67.6859 11.6393C67.8706 11.9899 68.1391 12.2404 68.5251 12.3406C68.6594 12.374 68.802 12.3824 68.9363 12.4074C69.9181 12.5827 70.5055 13.5596 70.1782 14.4864C69.9936 14.9958 70.0607 15.4466 70.3796 15.8892C70.9418 16.649 70.9418 17.6259 70.3796 18.394C70.0859 18.8032 70.0104 19.229 70.1782 19.7049C70.4216 20.4063 70.1279 21.1327 69.4649 21.4917C69.0705 21.7088 68.6761 21.9175 68.2817 22.1346C67.1489 22.7358 66.3433 23.6375 65.8818 24.8232C65.7811 25.0904 65.672 25.3492 65.5629 25.608H64.6902L64.6986 25.6164Z" fill="#4C956C"/>
<path d="M55.9126 16.9662C55.963 17.0247 55.9546 17.0831 55.9126 17.1416V16.9662Z" fill="#4C956C"/>
<path d="M55.9126 17.2C55.9546 17.2585 55.963 17.3169 55.9126 17.3754V17.2Z" fill="#4C956C"/>
<path d="M14.7523 38.1407V50.4145H8.87822V19.0035H18.5033C20.6599 19.0035 22.506 19.2206 24.0417 19.6632C25.5773 20.1057 26.8361 20.7235 27.8179 21.5168C28.7997 22.31 29.5213 23.2618 29.9829 24.3723C30.4444 25.4828 30.671 26.7018 30.671 28.0294C30.671 29.0898 30.5115 30.0834 30.2011 31.0269C29.8906 31.9704 29.4374 32.822 28.85 33.5902C28.2626 34.3583 27.5326 35.0347 26.6682 35.6108C25.8039 36.1869 24.8137 36.6545 23.706 37.0051C24.4529 37.4226 25.0906 38.0238 25.6277 38.8086L33.5325 50.4061H28.2458C27.7339 50.4061 27.306 50.306 26.9451 50.1056C26.5843 49.9052 26.2906 49.6129 26.0389 49.2372L19.4012 39.176C19.1494 38.8003 18.8809 38.5331 18.5788 38.3745C18.2767 38.2158 17.8404 38.1323 17.2613 38.1323H14.7523V38.1407ZM14.7523 33.9492H18.4194C19.5271 33.9492 20.4921 33.8156 21.3144 33.5401C22.1368 33.2645 22.8165 32.8888 23.3452 32.3962C23.8739 31.9119 24.2766 31.3358 24.5368 30.6678C24.7969 29.9999 24.9312 29.2735 24.9312 28.4719C24.9312 26.8772 24.4025 25.6581 23.3452 24.7981C22.2879 23.9465 20.6767 23.5123 18.5117 23.5123H14.7523V33.9409V33.9492Z" fill="#4C956C"/>
<path d="M46.2372 27.7789C47.647 27.7789 48.9477 28.0044 50.1309 28.4552C51.3141 28.9061 52.3379 29.5574 53.2022 30.4174C54.0581 31.2774 54.7294 32.3378 55.2078 33.5902C55.6861 34.8426 55.9294 36.2704 55.9294 37.8819C55.9294 38.291 55.9127 38.625 55.8707 38.8922C55.8371 39.1594 55.77 39.3681 55.6777 39.5184C55.5854 39.6687 55.4511 39.7772 55.2917 39.844C55.1322 39.9108 54.9308 39.9442 54.6791 39.9442H40.8331C40.9925 42.232 41.6135 43.9102 42.6876 44.9873C43.7617 46.0561 45.1883 46.5988 46.9673 46.5988C47.84 46.5988 48.5953 46.4986 49.2246 46.2982C49.854 46.0978 50.4078 45.8724 50.8861 45.6219C51.3561 45.3798 51.7756 45.1543 52.1281 44.9456C52.4889 44.7452 52.833 44.645 53.1686 44.645C53.3868 44.645 53.5798 44.6867 53.7392 44.7786C53.8987 44.8621 54.0413 44.9873 54.1504 45.146L55.7196 47.0998C55.1238 47.7928 54.4525 48.3772 53.7141 48.8448C52.9756 49.3124 52.1952 49.6881 51.3896 49.972C50.584 50.2559 49.7617 50.4563 48.9225 50.5732C48.0834 50.6901 47.2778 50.7485 46.489 50.7485C44.9282 50.7485 43.4848 50.4897 42.1422 49.9803C40.7995 49.4627 39.6415 48.7029 38.6513 47.7009C37.6611 46.6906 36.8807 45.4465 36.3185 43.9687C35.7478 42.4825 35.4709 40.7625 35.4709 38.8087C35.4709 37.2891 35.7143 35.8613 36.2178 34.517C36.7129 33.1811 37.4178 32.0121 38.3492 31.0186C39.2723 30.025 40.4051 29.2401 41.731 28.664C43.0652 28.0879 44.5673 27.7956 46.2372 27.7956V27.7789ZM46.3463 31.6197C44.7771 31.6197 43.5436 32.0622 42.6541 32.9473C41.7646 33.8323 41.2023 35.0848 40.9506 36.7046H51.0791C51.0791 36.0116 50.9868 35.352 50.7938 34.7424C50.6008 34.1246 50.3155 33.5902 49.9211 33.1226C49.5267 32.6551 49.0316 32.296 48.4358 32.0288C47.84 31.7617 47.1435 31.6281 46.3379 31.6281L46.3463 31.6197Z" fill="#4C956C"/>
<path d="M66.058 28.1296V51.1743C66.058 52.1429 65.9321 53.053 65.6804 53.913C65.4286 54.7646 65.0174 55.5161 64.4552 56.159C63.893 56.8019 63.1629 57.3112 62.2482 57.6786C61.342 58.046 60.2259 58.2297 58.9168 58.2297C58.4049 58.2297 57.935 58.1963 57.4986 58.1295C57.0623 58.0627 56.6175 57.9625 56.1644 57.8122L56.3406 54.9233C56.3826 54.631 56.5001 54.4474 56.6931 54.3722C56.8861 54.2887 57.2469 54.2553 57.784 54.2553C58.321 54.2553 58.7742 54.1969 59.1518 54.0883C59.521 53.9798 59.8231 53.8044 60.0497 53.5707C60.2762 53.3285 60.4357 53.0196 60.528 52.6271C60.6203 52.2347 60.6706 51.7505 60.6706 51.1743V28.1296H66.0664H66.058Z" fill="#4C956C"/>
<path d="M77.0005 28.1296V42.2904C77.0005 43.6514 77.3194 44.7034 77.9488 45.4549C78.5781 46.198 79.5348 46.5737 80.8019 46.5737C81.7333 46.5737 82.6061 46.365 83.42 45.9559C84.234 45.5467 85.006 44.979 85.7361 44.2526V28.138H91.1318V50.4229H87.834C87.1375 50.4229 86.6759 50.0972 86.4578 49.446L86.0885 47.6675C85.627 48.1351 85.1403 48.5526 84.6452 48.9367C84.1501 49.3207 83.6214 49.6464 83.0592 49.9136C82.497 50.1807 81.8928 50.3895 81.2466 50.5398C80.6005 50.6901 79.904 50.7652 79.1655 50.7652C77.9404 50.7652 76.8663 50.5565 75.9264 50.1473C74.9866 49.7382 74.1978 49.1537 73.56 48.4023C72.9222 47.6508 72.4355 46.7574 72.1083 45.7221C71.781 44.6867 71.6132 43.5429 71.6132 42.2988V28.138H77.0089L77.0005 28.1296Z" fill="#4C956C"/>
<path d="M103.434 21.6337C103.434 22.1012 103.341 22.5354 103.148 22.9362C102.955 23.3453 102.704 23.696 102.393 24.0049C102.083 24.3055 101.714 24.556 101.294 24.7313C100.874 24.915 100.421 25.0069 99.9429 25.0069C99.4646 25.0069 99.0366 24.915 98.6254 24.7313C98.2143 24.5476 97.8534 24.3055 97.5429 24.0049C97.2325 23.7043 96.9891 23.3453 96.8129 22.9362C96.6283 22.5271 96.536 22.0929 96.536 21.6337C96.536 21.1744 96.6283 20.7069 96.8129 20.2894C96.9975 19.8719 97.2408 19.5045 97.5429 19.2039C97.845 18.9034 98.2059 18.6612 98.6254 18.4775C99.0366 18.2938 99.4814 18.202 99.9429 18.202C100.404 18.202 100.874 18.2938 101.294 18.4775C101.714 18.6612 102.083 18.9034 102.393 19.2039C102.704 19.5045 102.955 19.8719 103.148 20.2894C103.341 20.7069 103.434 21.1577 103.434 21.6337ZM102.628 28.1296V50.4145H97.2325V28.1296H102.628Z" fill="#4C956C"/>
<path d="M124.463 32.8387C124.303 33.0391 124.144 33.1978 123.993 33.3147C123.842 33.4316 123.615 33.49 123.33 33.49C123.045 33.49 122.785 33.4065 122.524 33.2395C122.264 33.0725 121.945 32.8805 121.585 32.6717C121.224 32.463 120.787 32.271 120.284 32.104C119.78 31.937 119.159 31.8535 118.421 31.8535C117.473 31.8535 116.642 32.0205 115.929 32.3628C115.215 32.7051 114.62 33.1894 114.15 33.8323C113.68 34.4669 113.327 35.2434 113.092 36.1452C112.857 37.0469 112.74 38.0739 112.74 39.2178C112.74 40.3617 112.866 41.4638 113.118 42.3906C113.369 43.3174 113.739 44.0939 114.217 44.7285C114.695 45.3547 115.283 45.839 115.962 46.1646C116.642 46.4902 117.414 46.6572 118.278 46.6572C119.143 46.6572 119.831 46.5487 120.359 46.3399C120.888 46.1312 121.341 45.8974 121.702 45.6469C122.063 45.3964 122.382 45.1626 122.65 44.9539C122.919 44.7452 123.221 44.6366 123.557 44.6366C123.993 44.6366 124.32 44.8036 124.538 45.1376L126.091 47.0914C125.495 47.7844 124.849 48.3689 124.144 48.8364C123.439 49.304 122.717 49.6797 121.971 49.9636C121.224 50.2475 120.443 50.4479 119.646 50.5648C118.849 50.6817 118.052 50.7401 117.263 50.7401C115.878 50.7401 114.578 50.4813 113.353 49.972C112.127 49.4543 111.062 48.7112 110.155 47.726C109.249 46.7407 108.527 45.5384 107.99 44.1106C107.462 42.6828 107.193 41.0547 107.193 39.2345C107.193 37.598 107.428 36.0784 107.906 34.684C108.376 33.2896 109.073 32.0789 109.988 31.0519C110.902 30.0333 112.043 29.2317 113.395 28.6556C114.746 28.0795 116.306 27.7873 118.069 27.7873C119.831 27.7873 121.207 28.0544 122.466 28.5888C123.724 29.1232 124.857 29.8913 125.864 30.8933L124.446 32.8471L124.463 32.8387Z" fill="#4C956C"/>
<path d="M138.804 27.7789C140.214 27.7789 141.514 28.0044 142.698 28.4552C143.881 28.9061 144.905 29.5574 145.769 30.4174C146.625 31.2774 147.296 32.3378 147.775 33.5902C148.253 34.8426 148.496 36.2704 148.496 37.8819C148.496 38.291 148.479 38.625 148.437 38.8922C148.404 39.1594 148.337 39.3681 148.244 39.5184C148.152 39.6687 148.018 39.7772 147.858 39.844C147.699 39.9108 147.498 39.9442 147.246 39.9442H133.4C133.559 42.232 134.18 43.9102 135.254 44.9873C136.329 46.0561 137.755 46.5988 139.534 46.5988C140.407 46.5988 141.162 46.4986 141.791 46.2982C142.421 46.0978 142.975 45.8724 143.453 45.6219C143.923 45.3798 144.342 45.1543 144.695 44.9456C145.056 44.7452 145.4 44.645 145.735 44.645C145.954 44.645 146.147 44.6867 146.306 44.7786C146.465 44.8621 146.608 44.9873 146.717 45.146L148.286 47.0998C147.691 47.7928 147.019 48.3772 146.281 48.8448C145.542 49.3124 144.762 49.6881 143.956 49.972C143.151 50.2559 142.328 50.4563 141.489 50.5732C140.65 50.6901 139.845 50.7485 139.056 50.7485C137.495 50.7485 136.052 50.4897 134.709 49.9803C133.366 49.4627 132.208 48.7029 131.218 47.7009C130.228 46.6906 129.447 45.4465 128.885 43.9687C128.315 42.4825 128.038 40.7625 128.038 38.8087C128.038 37.2891 128.281 35.8613 128.785 34.517C129.28 33.1811 129.985 32.0121 130.916 31.0186C131.839 30.025 132.972 29.2401 134.298 28.664C135.632 28.0879 137.134 27.7956 138.804 27.7956V27.7789ZM138.913 31.6197C137.344 31.6197 136.11 32.0622 135.221 32.9473C134.331 33.8323 133.769 35.0848 133.517 36.7046H143.646C143.646 36.0116 143.554 35.352 143.361 34.7424C143.168 34.1246 142.882 33.5902 142.488 33.1226C142.093 32.6551 141.598 32.296 141.003 32.0288C140.407 31.7617 139.71 31.6281 138.905 31.6281L138.913 31.6197Z" fill="#4C956C"/>
<path d="M152.885 50.4145V28.1296H156.183C156.879 28.1296 157.341 28.4552 157.559 29.1065L157.928 30.8682C158.381 30.409 158.86 29.9832 159.355 29.6075C159.858 29.2317 160.387 28.9061 160.949 28.6306C161.511 28.355 162.107 28.1463 162.753 28.0044C163.391 27.8624 164.096 27.7873 164.851 27.7873C166.076 27.7873 167.159 27.996 168.107 28.4051C169.055 28.8143 169.844 29.3987 170.474 30.1418C171.103 30.8849 171.59 31.7783 171.917 32.8137C172.244 33.849 172.412 34.9929 172.412 36.237V50.4229H167.016V36.237C167.016 34.876 166.697 33.824 166.068 33.0725C165.439 32.3294 164.482 31.9537 163.215 31.9537C162.283 31.9537 161.411 32.1624 160.597 32.5799C159.783 32.9974 159.011 33.5735 158.281 34.2999V50.4145H152.885Z" fill="#4C956C"/>
<path d="M195.262 50.4145H192.837C192.325 50.4145 191.931 50.3394 191.637 50.1891C191.343 50.0388 191.125 49.7298 190.982 49.2623L190.504 47.6759C189.933 48.1852 189.38 48.6277 188.834 49.0118C188.289 49.3959 187.727 49.7215 187.139 49.9803C186.552 50.2392 185.939 50.4396 185.285 50.5648C184.63 50.6984 183.9 50.7568 183.103 50.7568C182.155 50.7568 181.282 50.6316 180.485 50.3728C179.687 50.1223 178.999 49.7382 178.42 49.2289C177.841 48.7195 177.397 48.085 177.078 47.3335C176.759 46.5821 176.599 45.697 176.599 44.6951C176.599 43.8518 176.818 43.0168 177.262 42.1986C177.707 41.3803 178.446 40.6372 179.478 39.9776C180.51 39.318 181.886 38.7669 183.606 38.3327C185.327 37.8985 187.458 37.6815 190.001 37.6815V36.3706C190.001 34.8677 189.682 33.7572 189.052 33.0308C188.423 32.3044 187.5 31.9453 186.292 31.9453C185.419 31.9453 184.689 32.0455 184.11 32.2459C183.531 32.4463 183.019 32.6801 182.591 32.9306C182.163 33.1811 181.769 33.4148 181.399 33.6152C181.038 33.8156 180.636 33.9158 180.199 33.9158C179.838 33.9158 179.52 33.824 179.259 33.6319C178.999 33.4399 178.79 33.2145 178.63 32.9389L177.648 31.2189C180.224 28.8727 183.329 27.7038 186.971 27.7038C188.28 27.7038 189.447 27.9209 190.479 28.3467C191.511 28.7725 192.375 29.3653 193.089 30.1251C193.802 30.8849 194.347 31.795 194.717 32.8471C195.086 33.9075 195.27 35.0597 195.27 36.3205V50.3978L195.262 50.4145ZM184.781 47.0663C185.335 47.0663 185.847 47.0162 186.308 46.916C186.77 46.8159 187.215 46.6656 187.626 46.4652C188.037 46.2648 188.44 46.0226 188.826 45.7304C189.212 45.4382 189.598 45.0958 189.992 44.6951V40.9628C188.423 40.9628 187.106 41.063 186.048 41.2551C184.991 41.4471 184.143 41.7059 183.506 42.0065C182.868 42.3155 182.406 42.6745 182.138 43.0753C181.869 43.4844 181.735 43.9269 181.735 44.4112C181.735 45.363 182.012 46.0393 182.574 46.4485C183.136 46.8576 183.866 47.058 184.764 47.058L184.781 47.0663Z" fill="#4C956C"/>
<path d="M207.925 50.7652C205.986 50.7652 204.501 50.2225 203.452 49.1287C202.403 48.0349 201.883 46.5236 201.883 44.6032V32.1541H199.609C199.315 32.1541 199.063 32.0622 198.854 31.8702C198.644 31.6781 198.535 31.4026 198.535 31.0269V28.8978L202.135 28.3133L203.268 22.2348C203.326 21.9426 203.461 21.7172 203.67 21.5585C203.88 21.3999 204.149 21.3164 204.468 21.3164H207.262V28.33H213.153V32.1541H207.262V44.2359C207.262 44.9289 207.438 45.4716 207.782 45.864C208.135 46.2564 208.596 46.4485 209.184 46.4485C209.519 46.4485 209.796 46.4067 210.023 46.3316C210.249 46.2481 210.442 46.1646 210.61 46.0811C210.778 45.9976 210.929 45.9141 211.055 45.8306C211.189 45.7555 211.315 45.7137 211.449 45.7137C211.609 45.7137 211.743 45.7555 211.844 45.8306C211.944 45.9141 212.054 46.031 212.171 46.1896L213.791 48.7947C213.002 49.446 212.104 49.9386 211.08 50.2726C210.065 50.6066 209.007 50.7735 207.917 50.7735L207.925 50.7652Z" fill="#4C956C"/>
<path d="M226.722 27.7789C228.132 27.7789 229.432 28.0044 230.616 28.4552C231.799 28.9061 232.823 29.5574 233.687 30.4174C234.543 31.2774 235.214 32.3378 235.692 33.5902C236.171 34.8426 236.414 36.2704 236.414 37.8819C236.414 38.291 236.397 38.625 236.355 38.8922C236.322 39.1594 236.255 39.3681 236.162 39.5184C236.07 39.6687 235.936 39.7772 235.776 39.844C235.617 39.9108 235.415 39.9442 235.164 39.9442H221.318C221.477 42.232 222.098 43.9102 223.172 44.9873C224.246 46.0561 225.673 46.5988 227.452 46.5988C228.325 46.5988 229.08 46.4986 229.709 46.2982C230.339 46.0978 230.892 45.8724 231.371 45.6219C231.841 45.3798 232.26 45.1543 232.613 44.9456C232.974 44.7452 233.318 44.645 233.653 44.645C233.871 44.645 234.064 44.6867 234.224 44.7786C234.383 44.8621 234.526 44.9873 234.635 45.146L236.204 47.0998C235.608 47.7928 234.937 48.3772 234.199 48.8448C233.46 49.3124 232.68 49.6881 231.874 49.972C231.069 50.2559 230.246 50.4563 229.407 50.5732C228.568 50.6901 227.762 50.7485 226.974 50.7485C225.413 50.7485 223.969 50.4897 222.627 49.9803C221.284 49.4627 220.126 48.7029 219.136 47.7009C218.146 46.6906 217.365 45.4465 216.803 43.9687C216.232 42.4825 215.956 40.7625 215.956 38.8087C215.956 37.2891 216.199 35.8613 216.702 34.517C217.197 33.1811 217.902 32.0121 218.834 31.0186C219.757 30.025 220.89 29.2401 222.216 28.664C223.55 28.0879 225.052 27.7956 226.722 27.7956V27.7789ZM226.831 31.6197C225.262 31.6197 224.028 32.0622 223.139 32.9473C222.249 33.8323 221.687 35.0848 221.435 36.7046H231.564C231.564 36.0116 231.471 35.352 231.278 34.7424C231.085 34.1246 230.8 33.5902 230.406 33.1226C230.011 32.6551 229.516 32.296 228.92 32.0288C228.325 31.7617 227.628 31.6281 226.823 31.6281L226.831 31.6197Z" fill="#4C956C"/>
</svg>
