<svg width="1724" height="34" viewBox="0 0 1724 34" fill="none" xmlns="http://www.w3.org/2000/svg">
<path d="M1 32L152.697 7.39092C195.122 0.508633 238.378 0.508626 280.803 7.39092L368.447 21.6091C410.872 28.4914 454.128 28.4914 496.553 21.6091L584.197 7.39092C626.622 0.508633 669.878 0.508626 712.303 7.39092L799.947 21.6091C842.372 28.4914 885.628 28.4914 928.053 21.6091L1015.7 7.39092C1058.12 0.508633 1101.38 0.508626 1143.8 7.39092L1231.45 21.6091C1273.87 28.4914 1317.13 28.4914 1359.55 21.6091L1447.2 7.39092C1489.62 0.508633 1532.88 0.508626 1575.3 7.39092L1727 32" stroke="#4C956C" stroke-width="4"/>
</svg>
